<?xml version="1.0" standalone="no"?>
<!DOCTYPE svg PUBLIC "-//W3C//DTD SVG 20010904//EN"
 "http://www.w3.org/TR/2001/REC-SVG-20010904/DTD/svg10.dtd">
<svg version="1.0" xmlns="http://www.w3.org/2000/svg"
 width="512.000000pt" height="512.000000pt" viewBox="0 0 512.000000 512.000000"
 preserveAspectRatio="xMidYMid meet">
<metadata>
Created by potrace 1.11, written by Peter Selinger 2001-2013
</metadata>
<g transform="translate(0.000000,512.000000) scale(0.100000,-0.100000)"
fill="#000000" stroke="none">
<path d="M2470 5104 c-71 -31 -124 -103 -133 -182 -6 -50 9 -121 30 -144 9
-10 13 -18 9 -18 -10 0 35 -42 67 -63 15 -10 25 -21 23 -26 -3 -4 -7 -21 -10
-37 -3 -16 -17 -78 -30 -139 -14 -60 -28 -126 -31 -145 -8 -40 -13 -63 -15
-70 -4 -10 -7 -26 -8 -47 l-2 -23 -444 0 c-415 0 -445 -1 -450 -17 -3 -10 -5
-58 -5 -108 0 -49 0 -113 0 -142 l-1 -51 -101 0 c-55 0 -103 -3 -106 -6 -3 -2
-5 -123 -6 -267 0 -295 -5 -277 77 -273 l42 2 -1 -202 c0 -110 1 -207 3 -213
3 -10 100 -13 441 -13 l437 0 1 -35 c0 -19 -3 -35 -8 -35 -37 0 -46 -15 -44
-70 l2 -50 -122 0 c-120 0 -121 0 -148 28 -29 30 -100 70 -139 78 -122 25
-222 -6 -306 -93 -56 -59 -75 -108 -78 -201 -3 -64 -7 -87 -22 -102 -10 -11
-25 -33 -33 -48 -7 -15 -25 -45 -38 -67 -30 -47 -55 -90 -73 -125 -7 -14 -15
-27 -19 -30 -18 -14 -47 -90 -42 -108 4 -15 -13 -53 -55 -124 -34 -57 -64
-110 -67 -119 -3 -8 -22 -21 -41 -28 -68 -25 -126 -93 -140 -164 -2 -11 -5
-21 -6 -22 -6 -6 -114 -18 -163 -19 -61 -1 -74 -11 -150 -106 -77 -97 -88
-110 -101 -124 -30 -31 -65 -120 -69 -175 -5 -61 17 -143 50 -187 14 -18 16
-18 52 23 21 23 46 52 56 65 101 128 155 188 170 188 10 0 32 -13 50 -30 18
-16 35 -30 39 -30 4 0 12 -9 18 -21 9 -17 7 -27 -16 -57 -15 -20 -31 -39 -34
-42 -24 -19 -179 -224 -175 -230 12 -20 142 -32 190 -17 98 29 129 56 262 219
85 106 94 121 87 145 -7 28 -9 38 -17 119 l-5 40 50 18 c95 34 156 127 146
227 -3 38 3 54 62 153 48 80 75 115 96 124 20 9 45 39 74 89 25 41 56 94 70
117 14 24 36 61 49 84 27 47 60 57 62 20 0 -13 1 -236 1 -496 1 -270 5 -475
10 -478 5 -3 60 -6 123 -6 l113 -1 -18 -26 c-35 -47 -30 -118 9 -160 21 -23
26 -33 17 -39 -45 -26 -55 -120 -20 -175 l24 -37 -20 -22 c-11 -12 -21 -27
-21 -32 -1 -6 -3 -22 -5 -36 -5 -39 5 -75 27 -99 20 -21 20 -21 -1 -49 -18
-24 -25 -41 -29 -72 -1 -3 -12 -7 -26 -8 -74 -6 -229 -84 -306 -154 -60 -56
-113 -154 -123 -229 -10 -80 -54 -74 576 -73 310 1 610 2 668 2 935 0 983 1
1009 16 32 20 -19 172 -85 253 -36 43 -167 143 -188 143 -6 0 -23 6 -38 14
-15 8 -52 20 -83 27 -33 7 -55 17 -55 26 0 15 -19 50 -38 71 -10 11 -8 19 9
43 33 47 35 96 5 151 -21 40 -23 48 -10 58 26 23 38 86 25 131 -7 22 -19 43
-27 46 -18 7 -18 30 1 40 39 22 51 129 18 166 -9 9 -14 18 -12 18 2 1 40 3 83
5 44 2 82 8 85 13 3 5 6 228 5 495 0 267 1 486 2 486 3 0 68 -103 69 -110 1
-7 42 -72 52 -85 5 -5 19 -30 31 -54 27 -52 42 -68 67 -72 18 -4 115 -148 115
-170 0 -5 5 -9 10 -9 6 0 10 -6 10 -14 0 -7 6 -19 14 -25 9 -8 11 -22 7 -44
-10 -45 5 -115 34 -159 30 -45 103 -91 156 -97 10 -1 -1 -112 -16 -153 -7 -21
-9 -38 -4 -38 5 0 9 -6 9 -12 0 -7 17 -31 37 -53 19 -22 47 -56 62 -75 55 -73
130 -149 165 -167 78 -40 177 -49 246 -21 l32 13 -57 70 c-31 39 -67 81 -78
95 -12 14 -38 46 -57 70 -19 25 -38 47 -42 48 -20 9 -4 43 35 74 23 18 44 36
45 40 5 11 50 10 54 0 3 -9 20 -30 128 -161 30 -36 65 -78 76 -94 12 -15 26
-27 32 -27 5 0 22 26 37 58 26 54 36 136 23 192 -12 53 -127 218 -215 308 -7
7 -13 17 -13 22 0 13 -38 23 -100 26 -30 2 -66 5 -80 7 -14 2 -34 5 -45 5 -15
2 -25 16 -39 55 -18 51 -92 135 -123 138 -7 1 -17 2 -23 3 -5 0 -40 54 -79
118 -50 85 -69 126 -69 152 0 32 -23 76 -159 301 -7 11 -19 34 -27 52 -9 17
-21 33 -27 35 -8 3 -13 33 -14 83 -2 88 -23 145 -72 201 -31 34 -103 90 -103
80 0 -4 -13 0 -29 9 -41 21 -126 26 -178 10 -24 -7 -43 -11 -43 -9 0 7 -81
-50 -107 -75 -18 -18 -35 -21 -98 -21 l-75 0 -1 43 c-1 23 -1 48 0 55 2 11 -4
14 -39 16 -10 1 -16 14 -18 38 l-3 38 412 0 c227 0 416 3 421 8 4 4 9 100 10
212 l3 205 48 1 c26 1 51 4 54 8 7 7 9 524 1 531 -2 3 -53 6 -111 6 l-107 2 1
148 c0 82 -3 153 -6 159 -4 6 -174 10 -486 10 -263 0 -479 3 -480 8 0 4 -3 16
-5 27 -3 11 -6 31 -8 45 -2 14 -13 68 -25 120 -12 52 -26 120 -32 150 -6 30
-15 67 -19 82 -8 24 -5 30 23 49 82 56 117 124 113 217 -1 33 -8 67 -14 75 -7
7 -10 16 -7 19 3 3 -15 25 -40 50 -64 65 -150 84 -225 52z m160 -3894 c0 -16
-17 -20 -28 -7 -8 10 -6 13 9 14 10 1 19 -2 19 -7z m3 -214 c-10 -12 -18 -22
-18 -23 0 -1 -8 5 -18 12 -18 13 -18 14 0 38 17 23 19 24 36 9 16 -14 16 -16
0 -36z m-7 -221 c-26 -20 -49 1 -27 25 14 15 18 15 31 3 13 -13 13 -16 -4 -28z
m1 -216 c-10 -16 -14 -17 -26 -5 -11 12 -11 16 0 29 21 22 42 2 26 -24z"/>
</g>
</svg>
